<svg width="120" height="50" viewBox="0 0 120 50" fill="none" xmlns="http://www.w3.org/2000/svg">
<g clip-path="url(#clip0_12_37)">
<path d="M11.7221 28.1191L18.5164 29.4505L19.0443 28.5207L13.0049 25.8575L11.7221 28.1191ZM14.8697 22.5699L20.1545 26.5661L20.6824 25.6358L16.1529 20.3078L14.8701 22.5699H14.8697ZM13.291 25.3548L19.3303 28.0188L19.8684 27.0684L14.5836 23.0726L13.291 25.3548ZM17.8799 17.262L16.4537 19.78L20.9836 25.1088L21.6549 23.9276L17.8799 17.262ZM10 31.16H17.5492L18.2201 29.9788L11.4262 28.6474L10 31.16ZM21.9799 28.0489L23.7463 31.16H25.7545L21.9799 24.5002L18.2053 31.16H20.2135L21.9799 28.0489Z" fill="#FCAF17"/>
<path d="M38.045 31.15H40.9221L41.5831 29.9588H38.0454L38.045 31.15ZM38.045 27.8423V29.0336H42.1065L42.7823 27.8423H38.045ZM99.0221 29.2548V25.7363H97.7487V31.15H98.8147L101.879 27.6064V31.15H103.152V25.7363H102.027L99.0221 29.2548ZM45.5307 25.7363L42.4815 31.15H43.9815L45.9897 27.5759L48.0126 31.15H49.5917L46.5426 25.7363H45.5307ZM36.3684 29.9584L33.3192 24.54H32.2782L29.2286 29.9584H28.4639V32.7382H29.6774V31.1496H35.9192V32.7382H37.1331V29.9584H36.3684ZM30.7483 29.9584L32.7565 26.3796L34.7794 29.9584H30.7483ZM77.9823 25.7363H72.0565V26.9276H77.3012L77.9823 25.7363ZM43.9663 25.7363H38.0454V26.9276H43.2905L43.9663 25.7363ZM108.875 25.7363L105.87 29.2548V25.7363H104.597V31.15H105.668L108.727 27.6064V31.15H110V25.7363H108.875ZM95.0299 27.8423H92.2421V25.7363H90.9688V31.15H92.2421V29.0336H95.0299V31.15H96.3028V25.7363H95.0299V27.8423ZM79.5417 25.7363L76.4926 31.15H77.9975L80.0057 27.5759L82.0286 31.15H83.6028L80.5532 25.7363H79.5417ZM66.9594 27.6771H65.0253V25.7317H63.7524V31.15H66.9495C67.813 31.15 68.711 30.6628 68.711 29.3858C68.7061 27.7072 67.5516 27.6771 66.9594 27.6771ZM66.8856 30.0044H65.0204V28.7981H66.8856C67.1024 28.7981 67.4331 28.8583 67.4331 29.4012C67.4331 29.9036 67.1618 30.0044 66.8856 30.0044ZM70.6159 25.7363H69.3577V31.1551H70.6159V25.7363ZM52.7991 25.6054C50.6721 25.6054 49.6659 26.9326 49.6659 28.4154C49.6659 29.9634 50.6475 31.2249 52.7991 31.2249C53.7364 31.2249 55.9073 30.7828 55.9073 28.4154C55.9073 26.8673 54.9356 25.6054 52.7991 25.6054ZM52.7844 30.0337C51.5557 30.0337 51.0376 29.3151 51.0376 28.4304C51.0376 27.46 51.6294 26.8117 52.7844 26.8117C54.0868 26.8117 54.5307 27.46 54.5307 28.4304C54.5307 29.5916 53.6774 30.0337 52.7844 30.0337ZM72.0565 31.15H74.9331L75.5991 29.9588H72.0565V31.15ZM72.0565 27.8423V29.0336H76.1171L76.7979 27.8423H72.0565ZM85.3938 29.2247V25.7363H84.1208V31.15H85.1917L88.2557 27.6365V31.15H89.5286V25.7363H88.4581L85.3938 29.2247ZM61.463 27.9582C61.7983 27.8122 62.0848 27.5763 62.0848 26.9878C62.0848 25.8668 61.1618 25.7363 60.5106 25.7363H57.0717V31.1551H60.57C62.1733 31.1551 62.504 30.2554 62.504 29.4309C62.5089 28.5011 61.9909 28.1188 61.463 27.9582ZM58.3299 26.8824H60.3676C60.6733 26.8824 60.8016 27.0434 60.8016 27.355C60.8016 27.6767 60.5995 27.8423 60.3676 27.8423H58.3299V26.8824ZM60.57 30.004H58.3299V28.8428H60.57C60.9299 28.8428 61.1917 28.9332 61.1917 29.4159C61.1917 29.7978 61.0335 30.004 60.57 30.004Z" fill="black"/>
</g>
<defs>
<clipPath id="clip0_12_37">
<rect width="100" height="15.4762" fill="white" transform="translate(10 17.262)"/>
</clipPath>
</defs>
</svg>
