<svg width="120" height="52" viewBox="0 0 120 52" fill="none" xmlns="http://www.w3.org/2000/svg">
<g clip-path="url(#clip0_12_18)">
<path d="M84.6195 27.8789L80.603 19.043C80.27 18.3129 79.7343 17.6938 79.0597 17.2593C78.385 16.8248 77.5997 16.5932 76.7973 16.592H38.0481C37.7708 16.592 37.5049 16.7022 37.3089 16.8982C37.1128 17.0943 37.0027 17.3602 37.0027 17.6374V29.136H38.5707C38.7088 29.1347 38.8458 29.1608 38.9738 29.2127C39.1018 29.2646 39.2183 29.3414 39.3164 29.4386C39.4146 29.5358 39.4925 29.6515 39.5456 29.779C39.5988 29.9065 39.6262 30.0432 39.6262 30.1814C39.6262 30.3195 39.5988 30.4563 39.5456 30.5837C39.4925 30.7112 39.4146 30.8269 39.3164 30.9241C39.2183 31.0213 39.1018 31.0981 38.9738 31.15C38.8458 31.202 38.7088 31.228 38.5707 31.2267H37.0027V34.3627C37.0036 35.1941 37.3343 35.9912 37.9222 36.5792C38.5101 37.1671 39.3072 37.4978 40.1387 37.4987H81.9521C82.7835 37.4978 83.5806 37.1671 84.1685 36.5792C84.7565 35.9912 85.0871 35.1941 85.0881 34.3627V30.0418C85.0892 29.2955 84.9294 28.5578 84.6195 27.8789Z" fill="url(#paint0_linear_12_18)"/>
<path d="M82.9975 31.2266H85.0881V30.0417C85.0861 29.7379 85.0576 29.4348 85.0028 29.136H82.9975C82.7203 29.136 82.4544 29.2461 82.2583 29.4422C82.0623 29.6382 81.9521 29.9041 81.9521 30.1814C81.9521 30.3186 81.9792 30.4546 82.0317 30.5814C82.0843 30.7082 82.1613 30.8234 82.2583 30.9205C82.3554 31.0176 82.4706 31.0946 82.5975 31.1471C82.7243 31.1996 82.8602 31.2266 82.9975 31.2266Z" fill="url(#paint1_linear_12_18)"/>
<path d="M77.2799 20.7733H72.5441C72.4069 20.7733 72.2709 20.8003 72.1441 20.8529C72.0173 20.9054 71.902 20.9824 71.805 21.0794C71.7079 21.1765 71.6309 21.2917 71.5784 21.4186C71.5258 21.5454 71.4988 21.6813 71.4988 21.8186V25.9999C71.4988 26.2772 71.6089 26.5431 71.805 26.7391C72.001 26.9352 72.2669 27.0453 72.5441 27.0453H79.8536C80.0285 27.0453 80.2006 27.0014 80.3542 26.9177C80.5077 26.8339 80.6378 26.713 80.7325 26.5659C80.8272 26.4188 80.8835 26.2504 80.8962 26.0759C80.9089 25.9015 80.8776 25.7266 80.8053 25.5674L79.1832 21.9988C79.017 21.6334 78.7492 21.3235 78.4117 21.1062C78.0742 20.8889 77.6813 20.7733 77.2799 20.7733Z" fill="url(#paint2_linear_12_18)"/>
<path d="M66.2722 10.3199H40.1389C39.3074 10.3209 38.5103 10.6515 37.9224 11.2395C37.3345 11.8274 37.0038 12.6245 37.0029 13.4559V27.0453H35.9576C35.8195 27.044 35.6824 27.07 35.5544 27.122C35.4264 27.1739 35.31 27.2507 35.2119 27.3479C35.1137 27.4451 35.0358 27.5608 34.9826 27.6882C34.9295 27.8157 34.9021 27.9525 34.9021 28.0906C34.9021 28.2288 34.9295 28.3655 34.9826 28.493C35.0358 28.6205 35.1137 28.7362 35.2119 28.8334C35.31 28.9306 35.4264 29.0074 35.5544 29.0593C35.6824 29.1112 35.8195 29.1373 35.9576 29.1359H38.5709C38.709 29.1346 38.846 29.1607 38.974 29.2126C39.102 29.2645 39.2184 29.3413 39.3166 29.4385C39.4147 29.5357 39.4926 29.6514 39.5458 29.7789C39.599 29.9064 39.6263 30.0431 39.6263 30.1813C39.6263 30.3194 39.599 30.4562 39.5458 30.5836C39.4926 30.7111 39.4147 30.8268 39.3166 30.924C39.2184 31.0212 39.102 31.098 38.974 31.1499C38.846 31.2019 38.709 31.2279 38.5709 31.2266H35.9576C35.6803 31.2266 35.4144 31.3367 35.2184 31.5328C35.0224 31.7288 34.9122 31.9947 34.9122 32.2719C34.9122 32.5492 35.0224 32.8151 35.2184 33.0111C35.4144 33.2072 35.6803 33.3173 35.9576 33.3173H66.2722C67.1037 33.3164 67.9008 32.9857 68.4887 32.3978C69.0766 31.8099 69.4073 31.0128 69.4082 30.1813V13.4559C69.4073 12.6245 69.0766 11.8274 68.4887 11.2395C67.9008 10.6515 67.1037 10.3209 66.2722 10.3199Z" fill="url(#paint3_linear_12_18)"/>
<path d="M46.4108 41.1574C49.0087 41.1574 51.1148 39.0513 51.1148 36.4534C51.1148 33.8554 49.0087 31.7494 46.4108 31.7494C43.8128 31.7494 41.7068 33.8554 41.7068 36.4534C41.7068 39.0513 43.8128 41.1574 46.4108 41.1574Z" fill="url(#paint4_linear_12_18)"/>
<path d="M46.4107 38.5439C47.5653 38.5439 48.5013 37.6079 48.5013 36.4533C48.5013 35.2987 47.5653 34.3627 46.4107 34.3627C45.2561 34.3627 44.3201 35.2987 44.3201 36.4533C44.3201 37.6079 45.2561 38.5439 46.4107 38.5439Z" fill="url(#paint5_linear_12_18)"/>
<path d="M73.5895 41.1574C76.1874 41.1574 78.2935 39.0513 78.2935 36.4534C78.2935 33.8554 76.1874 31.7494 73.5895 31.7494C70.9916 31.7494 68.8855 33.8554 68.8855 36.4534C68.8855 39.0513 70.9916 41.1574 73.5895 41.1574Z" fill="url(#paint6_linear_12_18)"/>
<path d="M73.5894 38.5439C74.744 38.5439 75.68 37.6079 75.68 36.4533C75.68 35.2987 74.744 34.3627 73.5894 34.3627C72.4348 34.3627 71.4988 35.2987 71.4988 36.4533C71.4988 37.6079 72.4348 38.5439 73.5894 38.5439Z" fill="url(#paint7_linear_12_18)"/>
</g>
<defs>
<linearGradient id="paint0_linear_12_18" x1="39.354" y1="15.2868" x2="67.3653" y2="47.4005" gradientUnits="userSpaceOnUse">
<stop stop-color="#FFEE66"/>
<stop offset="1" stop-color="#FF9900"/>
</linearGradient>
<linearGradient id="paint1_linear_12_18" x1="82.1055" y1="29.0055" x2="84.8174" y2="31.0331" gradientUnits="userSpaceOnUse">
<stop stop-color="#FFEE66"/>
<stop offset="1" stop-color="#FF9900"/>
</linearGradient>
<linearGradient id="paint2_linear_12_18" x1="79.2873" y1="21.6706" x2="71.7274" y2="27.1516" gradientUnits="userSpaceOnUse">
<stop stop-color="white"/>
<stop offset="1" stop-color="#EDF2F0"/>
</linearGradient>
<linearGradient id="paint3_linear_12_18" x1="34.0123" y1="12.1057" x2="52.429" y2="41.3021" gradientUnits="userSpaceOnUse">
<stop stop-color="#DDDDDD"/>
<stop offset="1" stop-color="#AAAAAA"/>
</linearGradient>
<linearGradient id="paint4_linear_12_18" x1="49.737" y1="33.1272" x2="43.3567" y2="39.5075" gradientUnits="userSpaceOnUse">
<stop stop-color="#3E4154"/>
<stop offset="1" stop-color="#1B2129"/>
</linearGradient>
<linearGradient id="paint5_linear_12_18" x1="47.8831" y1="34.981" x2="45.2363" y2="37.6277" gradientUnits="userSpaceOnUse">
<stop stop-color="white"/>
<stop offset="1" stop-color="#EDF1F2"/>
</linearGradient>
<linearGradient id="paint6_linear_12_18" x1="77.128" y1="32.9149" x2="70.5587" y2="39.4841" gradientUnits="userSpaceOnUse">
<stop stop-color="#3E4154"/>
<stop offset="1" stop-color="#1B2129"/>
</linearGradient>
<linearGradient id="paint7_linear_12_18" x1="75.0804" y1="34.9622" x2="72.0081" y2="38.0345" gradientUnits="userSpaceOnUse">
<stop stop-color="white"/>
<stop offset="1" stop-color="#EDF1F2"/>
</linearGradient>
<clipPath id="clip0_12_18">
<rect width="50.176" height="50.176" fill="white" transform="translate(34.9121 0.911987)"/>
</clipPath>
</defs>
</svg>
