<svg width="120" height="50" viewBox="0 0 120 50" fill="none" xmlns="http://www.w3.org/2000/svg">
<g clip-path="url(#clip0_12_10)">
<path d="M24.8126 32.5392C29.3124 32.5392 32.9602 28.8569 32.9602 24.3146C32.9602 19.7723 29.3124 16.09 24.8126 16.09C20.3128 16.09 16.665 19.7723 16.665 24.3146C16.665 28.8569 20.3128 32.5392 24.8126 32.5392Z" fill="#FC3F1D"/>
<path d="M25.899 20.7506H25.1521C23.7603 20.7506 23.0473 21.4703 23.0473 22.4984C23.0473 23.6635 23.5566 24.2118 24.575 24.9315L25.4237 25.5141L22.9794 29.2151H21.1462L23.3529 25.9253C22.0968 25 21.3839 24.109 21.3839 22.6354C21.3839 20.7506 22.6739 19.4827 25.1521 19.4827H27.5964V29.2494H25.899V20.7506Z" fill="white"/>
<path d="M38.5618 33.019V30.4488H44.7064V33.019H46.7094V28.7696H45.5551V18.0776H38.426L38.2562 23.1838C38.1544 26.0966 37.9507 27.8101 37.3736 28.7696H36.5928V33.019H38.5618ZM40.1234 23.4579L40.2592 19.7568H43.4503V28.7696H39.3765C39.75 27.9129 40.0216 26.3708 40.1234 23.4579ZM51.2584 21.2989C48.95 21.2989 47.3544 22.9439 47.3544 25.9596C47.3544 28.941 48.95 30.6202 51.2584 30.6202C53.5669 30.6202 55.1964 28.9753 55.1964 25.9596C55.1964 22.9781 53.5669 21.2989 51.2584 21.2989ZM51.2584 28.941C50.1042 28.941 49.5271 28.0157 49.5271 25.9596C49.5271 23.8691 50.1042 22.9781 51.2584 22.9781C52.4127 22.9781 53.0238 23.8691 53.0238 25.9596C53.0238 28.05 52.4466 28.941 51.2584 28.941ZM60.4245 30.6202C61.409 30.6202 62.0879 30.4488 62.5972 30.0719V28.3584C62.054 28.7354 61.4429 28.9753 60.5603 28.9753C59.0665 28.9753 58.4555 27.8101 58.4555 25.9596C58.4555 24.0062 59.2023 23.0124 60.5942 23.0124C61.409 23.0124 62.1898 23.2866 62.6311 23.5607V21.7787C62.1898 21.5388 61.409 21.3675 60.3566 21.3675C57.6747 21.3675 56.2828 23.3208 56.2828 26.0281C56.2488 28.9753 57.6068 30.6202 60.4245 30.6202ZM70.5071 23.1495V21.4703H63.4798V23.1495H65.9581V30.4488H68.0628V23.1495H70.5071ZM77.84 24.3489C77.84 22.1899 76.7536 21.3675 74.513 21.3675C73.1211 21.3675 72.0348 21.813 71.3898 22.1899V23.9719C71.9669 23.5607 73.189 23.0809 74.2754 23.0809C75.2938 23.0809 75.7352 23.4236 75.7352 24.3832V24.8972H75.3957C72.1706 24.8972 70.7448 25.9596 70.7448 27.7758C70.7448 29.5921 71.8311 30.6202 73.4606 30.6202C74.6828 30.6202 75.2259 30.2089 75.6333 29.7977H75.7352C75.7691 30.0376 75.837 30.346 75.9049 30.5174H77.9418C77.8739 29.7977 77.84 29.0438 77.84 28.3241V24.3489ZM75.7691 28.3241C75.4975 28.7011 75.0222 29.0438 74.2754 29.0438C73.3927 29.0438 72.9514 28.4955 72.9514 27.7073C72.9514 26.6449 73.6643 26.268 75.4636 26.268H75.7691V28.3241ZM83.034 30.4488C85.1049 30.4488 86.361 29.5578 86.361 27.8444C86.361 26.6792 85.6481 25.9938 84.4599 25.7882C85.4104 25.5141 86.0215 24.8287 86.0215 23.7663C86.0215 22.2242 85.0031 21.4703 83.068 21.4703H79.5374V30.4488H83.034ZM82.7625 23.0809C83.5093 23.0809 83.9506 23.3894 83.9506 24.0748C83.9506 24.6916 83.5093 25.0686 82.6946 25.0686H81.6422V23.0809H82.7625ZM82.8304 26.6449C83.713 26.6449 84.1883 26.9534 84.1883 27.7073C84.1883 28.5298 83.6451 28.8382 82.8304 28.8382H81.6761V26.6449H82.8304ZM92.9809 30.4488H95.3573L91.9964 25.6169L94.9499 21.4703H92.8451L89.8916 25.6169V21.4703H87.7868V30.4488H89.8916V26.0281L92.9809 30.4488ZM102.52 24.3489C102.52 22.1899 101.434 21.3675 99.1934 21.3675C97.8016 21.3675 96.7152 21.813 96.0702 22.1899V23.9719C96.6473 23.5607 97.8695 23.0809 98.9558 23.0809C99.9742 23.0809 100.416 23.4236 100.416 24.3832V24.8972H100.076C96.851 24.8972 95.4252 25.9596 95.4252 27.7758C95.4252 29.5921 96.5115 30.6202 98.141 30.6202C99.3632 30.6202 99.9063 30.2089 100.314 29.7977H100.416C100.45 30.0376 100.517 30.346 100.585 30.5174H102.622C102.554 29.7977 102.52 29.0438 102.52 28.3241V24.3489ZM100.416 28.3241C100.144 28.7011 99.6687 29.0438 98.9219 29.0438C98.0392 29.0438 97.5979 28.4955 97.5979 27.7073C97.5979 26.6449 98.3108 26.268 100.11 26.268H100.416V28.3241Z" fill="black"/>
</g>
<defs>
<clipPath id="clip0_12_10">
<rect width="86.67" height="17.82" fill="white" transform="translate(16.665 16.09)"/>
</clipPath>
</defs>
</svg>
