<svg width="120" height="50" viewBox="0 0 120 50" fill="none" xmlns="http://www.w3.org/2000/svg">
<path fill-rule="evenodd" clip-rule="evenodd" d="M36.2967 29.8623H33.3182C28.6716 29.8623 32.0473 20.1182 35.9592 20.1182H40.6653C41.4198 20.1182 42.7503 20.2555 43.4056 18.4125L44.4183 15.55H37.9647C34.4699 15.55 31.7495 16.7656 29.7836 18.8046C26.3881 22.2944 25.2364 27.7449 26.0505 30.3524C26.8249 32.7639 28.9298 34.352 32.226 34.3913L34.7876 34.4108H37.9449L38.7193 32.117C39.2951 30.4897 38.0044 29.8623 36.2967 29.8623ZM72.5557 25.8235L73.5286 22.7062H63.1434C61.4159 22.7062 60.6415 23.1767 60.3436 24.157L59.3706 27.2743H69.7559C71.4834 27.2743 72.2578 26.8038 72.5557 25.8235ZM57.8218 31.3131L56.8488 34.4304H67.234C68.9417 34.4304 69.736 33.9599 70.0339 32.9796L71.0069 29.8623H60.6216C58.9139 29.8623 58.1395 30.3328 57.8218 31.3131ZM74.9782 18.687L75.9514 15.5697H65.566C63.8385 15.5697 63.064 16.0402 62.7662 17.0205L61.7932 20.1378H72.1784C73.8863 20.1378 74.6605 19.6673 74.9782 18.687ZM59.2912 19.3144C58.8543 16.4127 57.2856 15.5697 53.4731 15.5697H46.5231L42.4723 27.2743H45.0338C46.5628 27.2743 47.3373 27.2939 48.1514 25.1373L49.8393 20.1182H52.4206C54.6248 20.1182 54.1284 22.8434 53.0164 25.4902C52.0235 27.8233 50.296 29.8819 48.2109 29.8819H43.902C42.1744 29.8819 41.3802 30.3524 41.0624 31.3328L39.9901 34.45H43.1474L46.2451 34.4304C48.9854 34.4108 51.2292 34.2148 53.8504 31.8817C56.6304 29.3918 59.8472 23.0002 59.2912 19.3144ZM94.2001 15.55H88.1834L82.524 21.4906C81.8685 22.1768 81.1935 22.863 80.538 23.6669H80.4785L83.2981 15.55H78.3938L71.7813 34.4304H76.686L78.7906 28.4899L80.9748 26.6665L82.7027 32.0386C83.2386 33.705 83.795 34.4304 84.9864 34.4304H88.7393L84.8869 23.8825L94.2001 15.55Z" fill="#00B33C"/>
</svg>
