<svg width="120" height="52" viewBox="0 0 120 52" fill="none" xmlns="http://www.w3.org/2000/svg">
<path d="M50.5922 33.4079H71.9257C72.6387 33.4079 73.3304 33.1649 73.8868 32.719C74.4432 32.2732 74.831 31.651 74.9863 30.9551L78.7705 14.0021C78.8387 13.6964 78.8374 13.3792 78.7666 13.0741C78.6958 12.769 78.5574 12.4836 78.3615 12.2392C78.1656 11.9948 77.9173 11.7975 77.6349 11.6619C77.3525 11.5263 77.0433 11.4559 76.7301 11.4559H45.8882L50.5922 33.4079Z" fill="url(#paint0_linear_9_979)"/>
<path d="M72.0214 38.6346H51.6374C51.3996 38.6347 51.1689 38.5536 50.9834 38.4048C50.7979 38.256 50.6687 38.0484 50.6171 37.8162L44.709 11.2294C44.6584 10.9967 44.5294 10.7883 44.3436 10.6393C44.1577 10.4902 43.9264 10.4095 43.6882 10.4106H40.6614C40.5233 10.412 40.3863 10.3859 40.2583 10.334C40.1303 10.2821 40.0139 10.2053 39.9157 10.1081C39.8176 10.0109 39.7397 9.89518 39.6865 9.76769C39.6333 9.64021 39.606 9.50344 39.606 9.36531C39.606 9.22718 39.6333 9.09042 39.6865 8.96293C39.7397 8.83544 39.8176 8.71976 39.9157 8.62256C40.0139 8.52536 40.1303 8.44857 40.2583 8.39664C40.3863 8.34471 40.5233 8.31866 40.6614 8.32H43.6882C44.4025 8.31661 45.0964 8.55865 45.6537 9.0056C46.211 9.45255 46.5979 10.0773 46.7497 10.7754L52.476 36.544H72.0214C72.2969 36.5467 72.5602 36.658 72.7541 36.8537C72.9479 37.0495 73.0567 37.3138 73.0567 37.5893C73.0567 37.8648 72.9479 38.1292 72.7541 38.3249C72.5602 38.5207 72.2969 38.632 72.0214 38.6346Z" fill="url(#paint1_linear_9_979)"/>
<path d="M51.6374 44.9067C53.9467 44.9067 55.8188 43.0346 55.8188 40.7253C55.8188 38.416 53.9467 36.5439 51.6374 36.5439C49.3281 36.5439 47.4561 38.416 47.4561 40.7253C47.4561 43.0346 49.3281 44.9067 51.6374 44.9067Z" fill="url(#paint2_linear_9_979)"/>
<path d="M51.6375 42.5547C52.6478 42.5547 53.4668 41.7357 53.4668 40.7254C53.4668 39.715 52.6478 38.896 51.6375 38.896C50.6271 38.896 49.8081 39.715 49.8081 40.7254C49.8081 41.7357 50.6271 42.5547 51.6375 42.5547Z" fill="url(#paint3_linear_9_979)"/>
<path d="M72.0215 44.9067C74.3308 44.9067 76.2028 43.0346 76.2028 40.7253C76.2028 38.416 74.3308 36.5439 72.0215 36.5439C69.7121 36.5439 67.8401 38.416 67.8401 40.7253C67.8401 43.0346 69.7121 44.9067 72.0215 44.9067Z" fill="url(#paint4_linear_9_979)"/>
<path d="M72.0215 42.5547C73.0318 42.5547 73.8509 41.7357 73.8509 40.7254C73.8509 39.715 73.0318 38.896 72.0215 38.896C71.0112 38.896 70.1921 39.715 70.1921 40.7254C70.1921 41.7357 71.0112 42.5547 72.0215 42.5547Z" fill="url(#paint5_linear_9_979)"/>
<defs>
<linearGradient id="paint0_linear_9_979" x1="47.4985" y1="10.0854" x2="75.9745" y2="31.3794" gradientUnits="userSpaceOnUse">
<stop stop-color="#FFEE66"/>
<stop offset="1" stop-color="#FF9900"/>
</linearGradient>
<linearGradient id="paint1_linear_9_979" x1="38.7434" y1="10.674" x2="65.3294" y2="41.6699" gradientUnits="userSpaceOnUse">
<stop stop-color="#DDDDDD"/>
<stop offset="1" stop-color="#AAAAAA"/>
</linearGradient>
<linearGradient id="paint2_linear_9_979" x1="48.2284" y1="37.3163" x2="54.8441" y2="43.932" gradientUnits="userSpaceOnUse">
<stop stop-color="#3E4154"/>
<stop offset="1" stop-color="#1B2129"/>
</linearGradient>
<linearGradient id="paint3_linear_9_979" x1="50.276" y1="39.3638" x2="52.8509" y2="41.9388" gradientUnits="userSpaceOnUse">
<stop stop-color="white"/>
<stop offset="1" stop-color="#EDF1F2"/>
</linearGradient>
<linearGradient id="paint4_linear_9_979" x1="68.5792" y1="37.2831" x2="75.3294" y2="44.0333" gradientUnits="userSpaceOnUse">
<stop stop-color="#3E4154"/>
<stop offset="1" stop-color="#1B2129"/>
</linearGradient>
<linearGradient id="paint5_linear_9_979" x1="70.5794" y1="39.2833" x2="73.4257" y2="42.1295" gradientUnits="userSpaceOnUse">
<stop stop-color="white"/>
<stop offset="1" stop-color="#EDF1F2"/>
</linearGradient>
</defs>
</svg>
